<?xml version="1.0" encoding="UTF-8" standalone="no"?><!DOCTYPE svg PUBLIC "-//W3C//DTD SVG 1.1//EN" "http://www.w3.org/Graphics/SVG/1.1/DTD/svg11.dtd"><svg width="100%" height="100%" viewBox="0 0 600 600" version="1.1" xmlns="http://www.w3.org/2000/svg" xmlns:xlink="http://www.w3.org/1999/xlink" xml:space="preserve" xmlns:serif="http://www.serif.com/" style="fill-rule:evenodd;clip-rule:evenodd;stroke-linejoin:round;stroke-miterlimit:2;"><g><path d="M550.416,133.079c-0,-22.145 -8.797,-43.382 -24.455,-59.041c-15.66,-15.658 -36.898,-24.455 -59.042,-24.455l-333.841,-0c-22.144,-0 -43.382,8.797 -59.04,24.455c-15.659,15.659 -24.456,36.896 -24.456,59.041l0,333.84c0,22.146 8.797,43.383 24.456,59.043c15.658,15.658 36.896,24.455 59.04,24.455l333.841,-0c22.144,-0 43.382,-8.797 59.042,-24.455c15.658,-15.66 24.455,-36.897 24.455,-59.043l-0,-333.84Z" style="fill:#15151c;"/></g><g><path d="M451.419,277.44c13.558,-0 24.548,10.991 24.548,24.548c0,0.001 0,0.001 0,0.002c0,13.558 -10.99,24.548 -24.548,24.548c-64.517,0 -238.321,0 -302.839,0c-13.557,0 -24.548,-10.99 -24.548,-24.548c0,-0.001 0,-0.001 0,-0.002c0,-13.557 10.991,-24.548 24.548,-24.548c64.518,-0 238.322,-0 302.839,-0Z" style="fill:#f0f0f0;"/></g></svg>